Coordinates
version=1
nRows=25
nColumns=33
inDegrees=yes

Units are S.I. units (second, meters, Newtons, ...)
Angles are in degrees.

endheader
time	ground_thorax_rot_x	ground_thorax_rot_y	ground_thorax_rot_z	ground_thorax_tx	ground_thorax_ty	ground_thorax_tz	clav_prot_r	clav_elev_r	scapula_abduction_r	scapula_elevation_r	scapula_upward_rot_r	scapula_winging_r	shoulder_elv_r	plane_of_elev_r	axial_rot_r	elbow_flexion_r	pro_sup_r	wrist_flex_r	wrist_dev_r	clav_prot_l	clav_elev_l	scapula_abduction_l	scapula_elevation_l	scapula_upward_rot_l	scapula_winging_l	shoulder_elv_l	plane_of_elev_l	axial_rot_l	elbow_flexion_l	pro_sup_l	wrist_flex_l	wrist_dev_l	
9.4600	-40.088059	-15.995083	26.391116	0.996419	786.904227	-65.183385	23.863800	-45.000000	33.087695	-45.000000	-45.000000	-2610.531287	-466.982334	163.664894	36.945160	357.039955	172.571389	19.195629	16.659508	5.402446	27.606024	-27.747761	-45.000000	-45.000000	-4247.074193	-1347.894025	16.339810	-180.000000	2.813822	184.434509	10.371161	-13.215348	
9.4700	-39.541598	-15.814967	26.410982	-1.562505	785.442811	-62.989697	23.982632	-45.000000	33.236010	-45.000000	-45.000000	-2611.066964	-466.928701	163.374490	36.733355	357.212462	172.195921	17.680773	16.010441	5.034813	27.629117	-27.515396	-45.000000	-45.000000	-4247.019186	-1347.811013	16.371789	-180.000000	2.832835	184.949584	10.492127	-13.327669	
9.4800	-38.850924	-15.656592	26.477299	-4.004838	783.536918	-60.274853	24.129077	-45.000000	33.429064	-45.000000	-45.000000	-2611.661490	-466.879316	163.015136	36.410681	357.443364	171.901171	15.847858	15.211505	4.603790	27.649053	-27.242974	-45.000000	-45.000000	-4246.984093	-1347.721016	16.406810	-180.000000	2.849354	185.559278	10.637239	-13.457781	
9.4900	-38.221497	-15.471734	26.476459	-6.502319	781.851677	-57.681240	24.233428	-45.000000	33.586637	-45.000000	-45.000000	-2612.212279	-466.820172	162.662941	36.061259	357.679164	171.741296	14.185246	14.487513	4.222067	27.665265	-27.002454	-45.000000	-45.000000	-4246.948745	-1347.626578	16.448015	-180.000000	2.845896	186.086900	10.781000	-13.586035	
9.5000	-37.645627	-15.282410	26.424575	-9.040066	780.390056	-55.180419	24.334646	-45.000000	33.742151	-45.000000	-45.000000	-2612.722554	-466.752009	162.326918	35.681884	357.933931	171.686837	12.754637	13.867223	3.864387	27.683695	-26.785570	-45.000000	-45.000000	-4246.905825	-1347.528386	16.491924	-180.000000	2.835869	186.528187	10.925970	-13.709225	
9.5100	-37.271421	-15.041667	26.240675	-11.729768	779.627699	-53.221717	24.327660	-45.000000	33.839546	-45.000000	-45.000000	-2613.148413	-466.680543	162.031046	35.315363	358.189416	171.747019	11.931848	13.517092	3.621838	27.686634	-26.666960	-45.000000	-45.000000	-4246.850854	-1347.434441	16.520735	-180.000000	2.806446	186.764949	11.052299	-13.818994	
9.5200	-36.959178	-14.802058	26.020192	-14.420719	779.090959	-51.209720	24.321229	-45.000000	33.962435	-45.000000	-45.000000	-2613.556508	-466.593673	161.728649	34.857644	358.549011	171.856391	11.629996	13.423197	3.389133	27.699819	-26.588772	-45.000000	-45.000000	-4246.764255	-1347.329791	16.552201	-180.000000	2.781128	186.876375	11.182284	-13.921559	
9.5300	-36.712636	-14.545778	25.753702	-17.115970	778.776784	-49.190055	24.262600	-45.000000	34.075015	-45.000000	-45.000000	-2613.944715	-466.492076	161.415504	34.335215	358.987675	172.022042	11.785233	13.529144	3.192647	27.710832	-26.553109	-45.000000	-45.000000	-4246.664125	-1347.208327	16.581644	-180.000000	2.749188	186.904769	11.307330	-14.022938	
9.5400	-36.380549	-14.322191	25.532129	-19.694814	778.217868	-46.746734	24.259087	-45.000000	34.226400	-45.000000	-44.999999	-2614.361355	-466.374831	161.064671	33.703484	359.521085	172.208404	11.984199	13.650215	2.937265	27.737179	-26.485049	-45.000000	-45.000000	-4246.554427	-1347.065171	16.625494	-180.000000	2.721701	186.998680	11.445534	-14.136289	
9.5500	-36.095067	-14.077334	25.264357	-22.295228	777.874982	-44.512768	24.216342	-45.000000	34.337463	-45.000000	-44.999999	-2614.740683	-466.262540	160.730143	33.091596	360.014966	172.453890	12.211997	13.748696	2.718493	27.755120	-26.440739	-45.000000	-45.000000	-4246.460120	-1346.915352	16.664001	-180.000000	2.674993	187.116473	11.573062	-14.259521	
9.5600	-35.859975	-13.835556	24.964748	-24.919146	777.801917	-42.557952	24.220448	-45.000000	34.421129	-45.000000	-44.999998	-2615.054098	-466.145999	160.451673	32.514457	360.440794	172.723515	12.433364	13.839396	2.514267	27.791549	-26.393299	-45.000000	-45.000000	-4246.357270	-1346.758280	16.721867	-180.000000	2.613450	187.234371	11.691834	-14.384398	
9.5700	-35.767784	-13.563765	24.575350	-27.655508	778.347955	-41.358634	24.192291	-45.000000	34.434481	-45.000000	-44.999996	-2615.267525	-466.046821	160.264078	32.076213	360.693341	172.999474	12.633716	13.893381	2.388629	27.822219	-26.384221	-45.000000	-45.000000	-4246.267137	-1346.611712	16.774672	-180.000000	2.523449	187.308324	11.784818	-14.507922	
9.5800	-35.784724	-13.283959	24.130571	-30.456334	779.422360	-40.788075	24.177266	-45.000000	34.404400	-45.000000	-44.999992	-2615.397527	-465.963425	160.158397	31.735902	360.800845	173.210133	12.787691	13.927958	2.312802	27.858737	-26.391767	-45.000000	-45.000000	-4246.174505	-1346.476852	16.834610	-180.000000	2.412763	187.323631	11.857831	-14.627125	
9.5900	-35.892593	-12.985645	23.633473	-33.284429	780.945780	-40.740723	24.127599	-45.000000	34.346605	-45.000000	-44.999987	-2615.478293	-465.905646	160.100816	31.469387	360.783847	173.311141	12.902158	13.941434	2.291183	27.882889	-26.430260	-45.000000	-45.000000	-4246.091793	-1346.358931	16.882880	-180.000000	2.278830	187.272739	11.909520	-14.747039	
9.6000	-35.989801	-12.703469	23.154210	-36.018969	782.531123	-40.692862	24.097897	-45.000000	34.308191	-45.000000	-44.999976	-2615.560896	-465.856017	160.040570	31.166290	360.758305	173.262246	12.979895	13.968739	2.260457	27.913465	-26.459237	-45.000000	-45.000000	-4245.999568	-1346.240393	16.938911	-180.000000	2.139721	187.179985	11.954734	-14.867818	
9.6100	-36.083996	-12.425042	22.681115	-38.663487	784.170867	-40.644433	24.053472	-45.000000	34.274812	-45.000000	-44.999957	-2615.645960	-465.811933	159.973241	30.845990	360.723558	173.090499	13.039971	14.002774	2.234325	27.941420	-26.492593	-45.000000	-45.000000	-4245.908995	-1346.119370	16.992662	-180.000000	1.995187	187.050988	11.989840	-14.989559	
9.6200	-36.174284	-12.157966	22.220166	-41.219804	785.860114	-40.595263	24.012014	-45.000000	34.243406	-45.000000	-44.999923	-2615.728852	-465.770974	159.903072	30.508416	360.687546	172.812568	13.083971	14.043972	2.206385	27.972955	-26.525111	-45.000000	-45.000000	-4245.816172	-1345.994673	17.049365	-180.000000	1.851718	186.888763	12.015747	-15.109374	
9.6300	-36.261664	-11.897205	21.766478	-43.687307	787.595979	-40.545081	23.965319	-45.000000	34.218058	-45.000000	-44.999861	-2615.810619	-465.732975	159.833312	30.157833	360.644896	172.439433	13.119097	14.088946	2.182097	28.004298	-26.561320	-45.000000	-45.000000	-4245.724716	-1345.869444	17.105053	-180.000000	1.704437	186.693538	12.029598	-15.229401	
9.6400	-36.344702	-11.651981	21.330874	-46.065275	789.376666	-40.493728	23.924232	-45.000000	34.194235	-45.000000	-44.999752	-2615.893853	-465.697717	159.761431	29.793938	360.605033	171.975544	13.141730	14.140031	2.153577	28.039362	-26.596799	-45.000000	-45.000000	-4245.628231	-1345.743181	17.165534	-180.000000	1.563759	186.466995	12.035696	-15.345134	
9.6500	-36.425369	-11.418454	20.908436	-48.352738	791.200121	-40.441182	23.887869	-45.000000	34.172054	-45.000000	-44.999555	-2615.976986	-465.664231	159.689430	29.425522	360.561753	171.426000	13.153826	14.196581	2.125087	28.076664	-26.632931	-45.000000	-45.000000	-4245.527400	-1345.616950	17.230162	-180.000000	1.427375	186.206990	12.033938	-15.456229	
9.6600	-36.503808	-11.198791	20.501668	-50.549622	793.063390	-40.387649	23.858207	-45.000000	34.148729	-45.000000	-44.999204	-2616.061213	-465.632584	159.614493	29.053730	360.519292	170.796140	13.154062	14.258372	2.094285	28.116565	-26.668082	-45.000000	-45.000000	-4245.420172	-1345.489770	17.300868	-180.000000	1.299201	185.911290	12.026797	-15.560513	
9.6700	-36.582498	-10.984917	20.100281	-52.655655	794.962324	-40.333461	23.822615	-45.000000	34.130257	-45.000000	-44.998572	-2616.144750	-465.603801	159.539531	28.680422	360.467759	170.095815	13.148738	14.320682	2.070015	28.155025	-26.707414	-45.000000	-45.000000	-4245.313402	-1345.363495	17.369170	-180.000000	1.169605	185.574798	12.010881	-15.661536	
9.6800	-36.660496	-10.783060	19.711157	-54.671056	796.891812	-40.279091	23.787036	-45.000000	34.113129	-45.000000	-44.997450	-2616.228439	-465.577660	159.461663	28.302189	360.416130	169.334843	13.134393	14.384127	2.046547	28.194844	-26.748199	-45.000000	-45.000000	-4245.204245	-1345.237710	17.438096	-180.000000	1.046209	185.195268	11.990067	-15.755832	
9.6900	-36.737613	-10.589974	19.331969	-56.596334	798.846013	-40.225081	23.746828	-45.000000	34.098867	-45.000000	-44.995412	-2616.311420	-465.553511	159.384378	27.924329	360.358163	168.525911	13.114846	14.446023	2.028145	28.235166	-26.791700	-45.000000	-45.000000	-4245.096701	-1345.114033	17.504500	-180.000000	0.924860	184.768621	11.963679	-15.844157	
9.7000	-36.811800	-10.408535	18.966377	-58.432310	800.818826	-40.171986	23.703043	-45.000000	34.087966	-45.000000	-44.991838	-2616.394674	-465.531076	159.307565	27.544637	360.298706	167.681208	13.089918	14.505530	2.011399	28.275783	-26.837822	-45.000000	-45.000000	-4244.990279	-1344.994875	17.569183	-180.000000	0.809952	184.293622	11.934158	-15.924556	
